<svg clip-rule="evenodd" fill-rule="evenodd" height="7.83333in" image-rendering="optimizeQuality" shape-rendering="geometricPrecision" text-rendering="geometricPrecision" viewBox="0 0 7.83333 7.83333" width="7.83333in" xmlns="http://www.w3.org/2000/svg"><circle cx="3.91667" cy="3.91667" fill="#e02832" r="3.91667"/><path d="m4.8337 2.88361c-.0811772-.0701299-.14837-.156039-.196827-.252969-.0400591.0802283-.0929567.152882-.155996.215268-.147413.145874-.349898.235957-.573169.235957-.203295 0-.389398-.0747244-.532394-.19826-.0811772-.0701299-.14837-.156035-.196823-.252969-.040063.0802283-.0929606.152886-.156.215272-.147406.145874-.349894.235957-.573165.235957-.0191181 0 .0140591-.00012992-.00916142-.00035433-.226122-.00237402-.423587-.0900591-.56474-.233339-.0236929-.0240512-.0457913-.0496457-.0661575-.0766417v2.93946h2.80126v-1.28709c0-.0441811.0358189-.08.08-.08h.949437c.0441811 0 .08.0358189.08.08v1.28709h.3v-2.95798c-.0245512.0329843-.0515433.0640354-.0807008.0928937-.147406.145874-.349894.235957-.573165.235957-.203299 0-.389398-.0747205-.532394-.198256zm-2.46767.674543h1.03129c.0441811 0 .08.0358189.08.08v1.03129c0 .0441811-.0358189.08-.08.08h-1.03129c-.0441811 0-.08-.0358189-.08-.08v-1.03129c0-.0441811.0358189-.08.08-.08z" fill="#e8e1e1"/><g fill-rule="nonzero"><path d="m1.63944 2.19152h4.55446v-.67485h-4.55446zm4.63446.16h-4.71446c-.0441811 0-.08-.0358189-.08-.08v-.83485c0-.0441811.0358189-.08.08-.08h4.71446c.0441811 0 .08.0358189.08.08v.83485c0 .0441811-.0358189.08-.08.08z" fill="#413b32"/><path d="m3.17226 2.78779c-.040063.0802323-.0929528.152898-.155996.215287-.147406.145874-.349894.235957-.573165.235957-.0191181 0 .0140591-.00012992-.00916142-.00035433-.226122-.00237402-.423587-.0900591-.56474-.233339-.141252-.14337-.225705-.34165-.225705-.565087 0-.00827559.00003937-.00183858.00011811 0h.00007874c.00003937-.00095276.00009449-.00355512.00015748-.00910236l-.00030709-.00026378c.00048425-.043878.0362244-.0791142.0799961-.0791063v-.00000394h1.45446l.00187795.00002756h.00018504l.0018622-.00002362v-.00000394h1.45446l.00187795.00002756h.00018504l.0018622-.00002362v-.00000394h1.45446c.0441811 0 .08.0358189.08.08 0 .00284252-.00015354.00564961-.00044095.00841732-.00433465.220224-.0957992.418902-.241287.562882-.147406.145874-.349894.235957-.573165.235957-.203299 0-.389398-.0747205-.532394-.198256-.0811811-.0701339-.148374-.156051-.196831-.252984-.0400591.0802283-.0929488.152894-.155992.215283-.147413.145874-.349898.235957-.573169.235957-.203295 0-.389398-.0747244-.532394-.19826-.0811811-.0701299-.14837-.156051-.196827-.252984z" fill="#696565"/><path d="m1.72927 2.19152h4.37069c.0441811 0 .08.0358189.08.08v3.51947c0 .0441811-.0358189.08-.08.08h-4.37069c-.0441811 0-.08-.0358189-.08-.08v-3.51947c0-.0441811.0358189-.08.08-.08zm4.29069.16h-4.21069v3.35947h4.21069z" fill="#413b32"/><path d="m1.60855 5.71099h4.61624c.0441811 0 .08.0358189.08.08v.605677c0 .0441811-.0358189.08-.08.08h-4.61624c-.0441811 0-.08-.0358189-.08-.08v-.605677c0-.0441811.0358189-.08.08-.08zm4.53624.16h-4.45624v.445677h4.45624z" fill="#413b32"/><path d="m6.18055 2.28302c-.00433465.220224-.0957992.418902-.241287.562882-.147406.145874-.349894.235957-.573165.235957-.203299 0-.389398-.0747205-.532394-.198256-.144713-.12502-.244984-.300185-.273894-.498539l-.0001378.00001968c-.00137402-.00945276-.00102756-.0187559.0007874-.0276063.00174803-.0127126.00315354-.0258031.00420079-.0392559.00131102-.0169291.00205512-.0317205.00218504-.0442441l-.00030709-.00022441c.00046457-.0438937.0362087-.0791535.0799961-.0791457v-.00000394h1.45446c.0441811 0 .08.0358189.08.08 0 .00284252-.00015354.00564961-.00044095.00841732zm-.353791.449756c.100559-.0995157.169087-.231189.18876-.378173h-1.29377c-.00066142.00609449-.00139764.0122047-.00220079.0183307.0251496.154957.104736.291736.218535.390047.114591.0989961.264177.158878.428016.158878.179827 0 .342535-.072189.460661-.189083z" fill="#413b32"/><path d="m4.72217 2.28302c-.00433465.220224-.0957992.418902-.241287.562882-.147413.145874-.349898.235957-.573169.235957-.203295 0-.389398-.0747244-.532394-.19826-.144713-.125016-.24498-.300181-.27389-.498535l-.0001378.00001968c-.00137402-.00945276-.00102756-.0187559.0007874-.0276063.00174803-.0127126.00315354-.0258031.00420079-.0392638.00131102-.0169134.00205118-.0317047.0021811-.0442362l-.00030709-.00020472c.00045276-.0438976.0362008-.0791732.0799961-.0791654v-.00000394h1.45446c.0441811 0 .08.0358189.08.08 0 .00284252-.00015354.00564961-.00044095.00841732zm-.353791.449756c.100559-.0995157.169087-.231189.18876-.378173h-1.29377c-.00066142.00609449-.00139764.0122047-.00220079.0183307.0251496.154961.104736.291732.218531.390043.114594.099.264181.158882.428016.158882.179831 0 .342539-.072189.460665-.189083z" fill="#413b32"/><path d="m3.26378 2.28302c-.00433465.220224-.0957992.418902-.241287.562882-.147406.145874-.349894.235957-.573165.235957-.0191181 0 .0140591-.00012992-.00916142-.00035433-.226122-.00237402-.423587-.0900591-.56474-.233339-.141252-.14337-.225705-.34165-.225705-.565087 0-.00827559.00003937-.00183858.00011811 0h.00007874c.00003937-.00095276.00009449-.00355512.00015748-.00910236l-.00030709-.00026378c.00048425-.043878.0362244-.0791142.0799961-.0791063v-.00000394h1.45446c.0441811 0 .08.0358189.08.08 0 .00284252-.00015354.00564961-.00044095.00841732zm-.353791.449756c.100559-.0995157.169087-.231189.18876-.378173h-1.28543c.0152913.150685.0786496.283031.17585.381689.112402.114094.270484.183929.452244.185835.0175433.00016929-.0169094-.00026772.00790945-.00026772.179827 0 .342535-.072189.460661-.189083zm-1.26015-.449697c.00002362.00052362.00004724.00066929.00007874 0z" fill="#413b32"/><path d="m2.36604 3.55815h1.03129c.0441811 0 .08.0358189.08.08v1.03129c0 .0441811-.0358189.08-.08.08h-1.03129c-.0441811 0-.08-.0358189-.08-.08v-1.03129c0-.0441811.0358189-.08.08-.08zm.951287.16h-.871287v.871287h.871287z" fill="#413b32"/><path d="m4.69053 4.34389h.949437c.0441811 0 .08.0358189.08.08v1.36709c0 .0441811-.0358189.08-.08.08h-.949437c-.0441811 0-.08-.0358189-.08-.08v-1.36709c0-.0441811.0358189-.08.08-.08zm.869437.16h-.789437v1.20709h.789437z" fill="#413b32"/></g><path d="m1.72927 2.19152h4.37069.09393v-.67485h-4.55445v.67485z" fill="#c2babb"/><path d="m3.09875 2.35461h-1.28543c.0152913.150685.0786496.283031.17585.381689.112402.114094.270484.183929.452244.185835.0175433.00016929-.0169094-.00026772.00790945-.00026772.179827 0 .342535-.072189.460661-.189083.100559-.0995157.169087-.231189.18876-.378173z" fill="#fff59d"/><path d="m3.26117 2.37294c.0251496.154961.104736.291732.218531.390043.114594.099.264181.158882.428016.158882.179831 0 .342539-.072189.460665-.189083.100559-.0995157.169087-.231189.18876-.378173h-1.29377c-.00066142.00609449-.00139764.0122047-.00220079.0183307z" fill="#fff59d"/><path d="m4.71955 2.37294c.0251496.154957.104736.291736.218535.390047.114591.0989961.264177.158878.428016.158878.179827 0 .342535-.072189.460661-.189083.100559-.0995157.169087-.231189.18876-.378173h-1.29377c-.00066142.00609449-.00139764.0122047-.00220079.0183307z" fill="#fff59d"/><path d="m3.31733 4.58944v-.87129h-.87129v.87129z" fill="#e3f2fd"/><path d="m4.77053 4.50389v1.2071h.78943v-1.2071z" fill="#e3f2fd"/><path d="m4.69053 5.87099h-2.96126-.04072v.44568h4.45623v-.44568h-.04482-.46z" fill="#ada3a3"/><path d="m5.2504 1.51667h.943496v.67485h-.943496z" fill="#858181"/></svg>