<?xml version="1.0" encoding="UTF-8" standalone="no"?> <svg id="stroke" xmlns="http://www.w3.org/2000/svg" viewBox="0 0 340 340"><path d="M259.78,20.483c-15.1-11.376-45.084-2.949-46.382-2.576A46.439,46.439,0,0,1,198,19.98c-18.5-13.1-33.975-12.381-44.4-8.825a19.5,19.5,0,0,0-13.118,17.3l-3.015,46.116a12.13,12.13,0,0,0-11.235,6.287h0a12.207,12.207,0,0,0,1.929,14.481c1.423,1.4,35.49,34.394,91.572,37.9,36.444,2.28,56.5-11.8,60.2-14.743a12.589,12.589,0,0,0,3.209-15.88l-.083-.153a12.456,12.456,0,0,0-7.767-6.14,12.782,12.782,0,0,0-7.019.127V73.1c28.61,15.285,46.48,35.345,53.126,59.684,5.02,18.381,12.1,65.777-59.331,65.132a3.5,3.5,0,1,0-.131,7q1.377.025,2.728.025c34.411,0,79.318-12.357,63.594-73.605-4.857-18.918-19.584-45.58-59.986-66.125V39.2C268.275,31.028,265.417,24.73,259.78,20.483Zm-44.42,4.143c7.71-2.213,29.962-6.269,40.208,1.449,3.486,2.626,5.329,6.422,5.642,11.543-11.29,9.1-28.93,14.624-50.869-7.16-1.379-1.37-2.743-2.651-4.1-3.865A59.472,59.472,0,0,0,215.36,24.626ZM145.034,99.819a103.58,103.58,0,0,1-11.888-9.4,5.021,5.021,0,0,1-.785-6.174,5.337,5.337,0,0,1,7.773-1.649c1.938,1.445,4.186,3.048,6.7,4.742A23.841,23.841,0,0,0,145.034,99.819Zm8.991,5.775c-.041-.107-.068-.216-.12-.322a17.767,17.767,0,0,1-1.089-14.083,176.088,176.088,0,0,0,22.311,11.655,32.8,32.8,0,0,0,.692,13.425A153.637,153.637,0,0,1,154.025,105.594Zm31.045,13.98c-3.395-4.565-3.523-10.493-3.217-14a149.322,149.322,0,0,0,28.915,7.9,24.128,24.128,0,0,0,2.571,12.158A145.055,145.055,0,0,1,185.07,119.574ZM144.329,76.991l3.144-48.083a12.52,12.52,0,0,1,8.391-11.128c10.789-3.68,28.143-3.607,49.545,17.644,24.079,23.91,44.531,17.857,55.866,10.718V100c-8.961,4.582-24.16,9.806-44.195,7.326C183.641,103.187,157.151,86.548,144.329,76.991Zm78.234,49.387a3.453,3.453,0,0,0-.481-.586c-3.864-3.751-4.363-8.781-4.336-11.35a85.44,85.44,0,0,0,29.907-1.95c.38,2.993,1.446,7.733,4.411,11.382A104.1,104.1,0,0,1,222.563,126.378Zm46.387-22.644a5.735,5.735,0,0,1,4.516-.654,5.515,5.515,0,0,1,3.442,2.722l.083.153a5.6,5.6,0,0,1-1.413,7.063,55.389,55.389,0,0,1-15.461,8.423c-4.562-1.97-5.46-8.61-5.634-10.975A75.665,75.665,0,0,0,268.95,103.734Z"/><path d="M109.446,115.337c.538.011,54.027,1.545,80.244,46.465a3.5,3.5,0,1,0,6.046-3.529c-14.745-25.263-37.378-37.5-53.77-43.31a113.67,113.67,0,0,0-32.217-6.62c-19.953-2.194-30.43-8.544-32.5-9.92A64.642,64.642,0,0,1,65.728,72.3a20.859,20.859,0,0,1,7.43-20.139A37.855,37.855,0,0,1,94.592,44.01a42.4,42.4,0,0,1,21.955,4.717,99.838,99.838,0,0,0,10.445,4.493,3.5,3.5,0,1,0,2.412-6.572,92.9,92.9,0,0,1-9.709-4.173,49.382,49.382,0,0,0-25.6-5.447A44.719,44.719,0,0,0,68.78,46.7a27.849,27.849,0,0,0-9.934,26.883A71.725,71.725,0,0,0,71.87,102.947c18.784,28.611,43.784,50.241,61.458,63.352a3.5,3.5,0,0,0,4.171-5.622c-14.874-11.033-35.061-28.24-52.028-50.61a102.337,102.337,0,0,0,23.664,5.25C109.238,115.329,109.342,115.335,109.446,115.337Z"/><path d="M251.765,229.8c-6.6-2.181-8.718-8.74-9.225-10.783a52.633,52.633,0,0,0,1.026-18.777c2.857-4.678,7.735-7.78,14.543-9.2a3.5,3.5,0,0,0,2.691-2.618l1.6-6.729a3.5,3.5,0,0,0-1.622-3.82,22.231,22.231,0,0,0-14.949-2.606,28.8,28.8,0,0,0-11.783,4.462,36.44,36.44,0,0,0-3.409-3.251,24.481,24.481,0,0,0-15.7-5.633H146.558a11.215,11.215,0,0,0-8.283,3.661h-82.8v-9.283a3.5,3.5,0,0,0-3.5-3.5H37.706A12.541,12.541,0,0,0,26.078,169.7l-1.854,4.806H10a3.5,3.5,0,0,0-3.5,3.5v23.386a3.5,3.5,0,0,0,3.5,3.5H22.191v4.045A11.22,11.22,0,0,0,33.4,220.146H135.305v.972a3.5,3.5,0,0,0,2.073,3.2c7.176,3.2,10.576,11.042,12.165,17.055a14.044,14.044,0,0,0,13.568,10.447h7.969a13.622,13.622,0,0,1,4.3,9.972v8.977a19.3,19.3,0,0,0,19.282,19.283h19.3a22.881,22.881,0,0,0,22.855-22.855v-.33a16.349,16.349,0,0,0,2.858.274h10.471c4.205,2.115,26.772,15.2,13.124,46.532a21.563,21.563,0,0,0-3.785,14.224,3.5,3.5,0,0,0,3.485,3.179H330a3.5,3.5,0,0,0,3.5-3.425,119.1,119.1,0,0,0-9.481-45.125C314.874,261.289,294.915,234.95,251.765,229.8ZM32.61,172.222a5.494,5.494,0,0,1,5.1-3.5H48.477v5.783H31.727Zm102.7,40.924H33.4a4.212,4.212,0,0,1-4.206-4.207v-4.045H135.305Zm0-31.046v15.794H13.5V181.508H135.335C135.325,181.705,135.305,181.9,135.305,182.1Zm111.548.094a16.486,16.486,0,0,1,8.082.634l-.447,1.882a29.276,29.276,0,0,0-13.043,7.069,36.831,36.831,0,0,0-3.162-6.462A21.975,21.975,0,0,1,246.853,182.194ZM194.662,283.048a12.3,12.3,0,0,1-12.282-12.283v-8.977a20.211,20.211,0,0,0-2.557-9.972h10.794a26.133,26.133,0,0,0-3.83,13.3c0,7.994,3.91,13.869,8.76,17.934Zm35.158-15.855c-1.928,15.855-19.359,15.855-19.359,15.855-2.4-.666-16.674-5.166-16.674-17.9.006-.545.252-13.336,9.777-13.336h5.617a21.379,21.379,0,0,1-2.858,15.76,3.5,3.5,0,0,0,.853,4.625l4.92,3.754a3.5,3.5,0,0,0,3.719.332,27.73,27.73,0,0,0,12.23-14.012,16.256,16.256,0,0,0,1.775,1.56Zm-13.445-14.785a14.753,14.753,0,0,1,6.078,3.442,19.39,19.39,0,0,1-8.045,13.064l-.594-.454A28.032,28.032,0,0,0,216.375,252.408Zm31.066,7.729h-7.763a9.374,9.374,0,0,1-7.236-3.4l-3.338-4.025a21.782,21.782,0,0,0-16.813-7.9h-49.18a7.04,7.04,0,0,1-6.8-5.235c-1.832-6.934-5.737-15.881-14-20.607V182.1a4.257,4.257,0,0,1,4.253-4.253h68.378a17.471,17.471,0,0,1,11.208,4c6.827,5.711,14,16.633,9.426,36.245-.217.67-2.274,6.621-7.158,8.347a3.485,3.485,0,0,0-2.134,4.466,3.281,3.281,0,0,0,4.466,2.134,17.015,17.015,0,0,0,7.714-5.765,20.3,20.3,0,0,0,8.983,8.335Zm19.078,63.935a13.9,13.9,0,0,1,2.5-6.4,3.528,3.528,0,0,0,.5-.809c5.8-13.1,6.687-25.017,2.644-35.413-4.441-11.419-13.583-17.624-17.719-19.946V237.218c30.052,4.552,51.255,20.637,63.054,47.857a115.766,115.766,0,0,1,8.921,39Z"/><path d="M214.394,185.586H166.179a3.5,3.5,0,0,0-3.5,3.5v46.56a3.5,3.5,0,0,0,3.5,3.5h48.215a3.5,3.5,0,0,0,3.5-3.5v-46.56A3.5,3.5,0,0,0,214.394,185.586Zm-44.715,18.508h16a2.405,2.405,0,0,1,0,4.81h-16Zm0,28.052v-4.81h13.275a5.12,5.12,0,0,1,5.095,4.81Zm41.215,0H195.065a12.134,12.134,0,0,0-12.111-11.81H169.679V215.9h16a9.405,9.405,0,0,0,0-18.81h-16v-4.508h41.215Z"/><path d="M294.1,282.717a3.831,3.831,0,1,0,3.83,3.831A3.831,3.831,0,0,0,294.1,282.717Z"/></svg>