<svg enable-background="new 0 0 366 220.7" viewBox="0 0 366 220.7" xmlns="http://www.w3.org/2000/svg"><g stroke="#21409a" stroke-miterlimit="10" stroke-width="6.384"><path d="m134.7 172.6h111.8v43h-111.8z" fill="#5fccf5"/><path d="m115.3 58.1s-12.8 11.8-8.1 30.8c0 0 10.3 31.8 36.4 56.5v27.2h95.1v-25.5l12.9-11.2s9.3-7.2 9.2-19.6v-70.6h-50.3" fill="#fff"/><path d="m267.8 35.1c-.2 0-.5 0-.7 0h-164.7c-1 0-2 .1-2.9.3-7-17.7-24.3-30.2-44.5-30.2-19.7 0-36.6 11.9-44 28.8h44v38.2h-44c7.4 17 24.3 28.9 44 28.9 20.2 0 37.5-12.5 44.5-30.2.9.2 1.8.3 2.9.3h164.6.4c7 17.7 24.3 30.3 44.6 30.3 19.7 0 36.6-11.9 44-28.9h-44v-38.2h44c-7.4-17-24.3-28.8-44-28.8-19.9 0-37 12.2-44.2 29.5z" fill="#5fccf5"/><path d="m255.6 48.6c2.6 0 4.7 2.1 4.7 4.7 0 2.6-2.1 4.7-4.7 4.7h-144.1c-2.6 0-4.7-2.1-4.7-4.7 0-2.6 2.1-4.7 4.7-4.7z" fill="#fff"/><path d="m57.4 17.8c19.4.5 34.7 16.5 34.3 35.9" fill="none"/><path d="m318.9 88.9c-19.4-.5-34.7-16.5-34.3-35.9" fill="none"/><g fill="#fff"><path d="m172.5 52.9c0 8-6.5 14.4-14.4 14.4-8 0-14.4-6.4-14.4-14.4v-27c0-8 6.5-14.4 14.4-14.4 8 0 14.4 6.5 14.4 14.4z"/><path d="m203.2 50.8c0 8-6.5 14.4-14.4 14.4-8 0-14.4-6.5-14.4-14.4v-31.2c0-8 6.5-14.4 14.4-14.4 8 0 14.4 6.5 14.4 14.4z"/><path d="m232.1 45.7c0 8-6.5 14.4-14.4 14.4-8 0-14.4-6.5-14.4-14.4v-19.8c0-8 6.4-14.4 14.4-14.4 8 0 14.4 6.5 14.4 14.4z"/><path d="m260.9 45.7c0 8-6.5 14.4-14.4 14.4-8 0-14.4-6.5-14.4-14.4v-13.5c0-8 6.5-14.4 14.4-14.4 8 0 14.4 6.4 14.4 14.4z"/><path d="m173.1 120.7c5.5-43.4-30.8-53.4-30.8-53.4h41.9c19-4.1 19-27.9 19-27.9h-65.8l-22.1 18.7s-12 13-8.1 30.8c0 0 9 29.3 36.4 56.5" stroke-linejoin="round"/><path d="m236.9 194.1c0 4.2-3.4 7.7-7.7 7.7-4.2 0-7.7-3.4-7.7-7.7 0-4.2 3.4-7.7 7.7-7.7 4.2 0 7.7 3.5 7.7 7.7z"/></g></g></svg>