<?xml version="1.0" encoding="UTF-8"?>
<!DOCTYPE svg PUBLIC "-//W3C//DTD SVG 1.1//EN" "http://www.w3.org/Graphics/SVG/1.1/DTD/svg11.dtd">
<!-- Creator: CorelDRAW -->
<svg xmlns="http://www.w3.org/2000/svg" xml:space="preserve" width="512px" height="512px" style="shape-rendering:geometricPrecision; text-rendering:geometricPrecision; image-rendering:optimizeQuality; fill-rule:evenodd; clip-rule:evenodd"
viewBox="0 0 512 512"
 xmlns:xlink="http://www.w3.org/1999/xlink">
 <defs>
  <style type="text/css">
   <![CDATA[
    .fil1 {fill:#F9F9F9}
    .fil0 {fill:#52ABB3}
    .fil2 {fill:#AADDE3}
   ]]>
  </style>
 </defs>
 <g id="Layer_x0020_1">
  <metadata id="CorelCorpID_0Corel-Layer"/>
  <path class="fil0" d="M389.189 42.4383c-1.39843,-17.7378 12.0307,-34.8509 20.0257,-26.2383 2.59961,2.8004 2.40001,7.30042 -0.400395,9.90003 -5.02679,4.65828 -6.71931,10.6288 -5.11891,18.7583 36.3946,-19.5875 60.7077,54.5872 39.5706,102.142l18.7477 0c4.46576,0 7.52719,4.1197 6.90002,8.20042 -10.5118,68.4593 -23.1792,138.429 -34.0005,206.998 -0.499608,3.30001 -3.49962,5.79923 -6.90002,5.79923l-277.998 0c-19.9005,0 -36.0001,13.0004 -36.0001,28.9997 0,15.9993 16.0997,28.9997 36.0001,28.9997l269.998 0.00118111c9.23152,0 9.23389,13.9996 0,13.9996l-37.2863 0c25.1268,27.4524 5.58545,72.0002 -31.7139,72.0002 -37.2993,0 -56.8407,-44.5478 -31.7139,-72.0002l-111.571 0c25.1268,27.4524 5.58545,72.0002 -31.7139,72.0002 -37.447,0 -56.9399,-44.8631 -31.4836,-72.2483 -25.3359,-2.28308 -44.5159,-20.2501 -44.5159,-42.7525 0,-23.6209 21.1359,-42.2423 48.3368,-42.9745l-43.1375 -196.224c-0.96142,-2.32796 -1.17048,-1.63111 -0.999216,-4.80001l-8.20042 -37.5001 -49.5002 -28.3997c-7.97837,-4.58623 -1.07244,-16.7835 7.00042,-12.1996l52.0006 30.0001c1.69961,1.0004 2.89962,2.59961 3.30001,4.60041l8.29963 37.5001 40.8993 0 0 -110c0,-17.5997 13.9004,-31.9997 31.0005,-31.9997 17.1001,0 31.0005,14.4 31.0005,31.9997l0 110 9.99806 0 0 -44.0009c0,-34.1375 20.9575,-24.3331 22.8509,-66.9912 -3.34135,-0.539765 -5.85002,-3.4004 -5.85002,-6.90829l0 -22.0997c0,-3.90001 3.1004,-7.00042 6.99923,-7.00042l60.3994 0c3.90001,0 7.00042,3.1004 7.00042,7.00042l0 22.0997c0,3.29883 -2.21812,6.02364 -5.26065,6.78664 1.78347,42.4856 21.8611,33.3615 21.8611,67.1152l0 43.9986 18.0768 0c-19.3335,-40.6218 -2.55473,-112.068 33.0981,-104.562zm41.8241 118.562l-310.799 0 6.37089 28.9985 322.364 0.00118111 4.7634 -28.9997 -22.6997 0zm-3.56222 -13.9996c18.5422,-28.9076 7.64648,-90.9003 -12.437,-90.9003 -8.24412,0 -8.27247,7.68428 -14.5997,7.99963 -6.21498,0.310631 -8.55239,-7.89924 -15.3993,-7.89924 -21.8103,0 -32.1001,63.7809 -12.7926,90.7999l55.2285 0zm-255.435 0l33.9981 0 0.00118111 -110c0,-23.7202 -33.9993,-23.7202 -33.9993,0l0 110zm-7.00042 206.998l256.998 0 4.43505 -27.0001 -269.765 0 5.93151 27.0001 2.40001 0zm263.733 -40.9997l4.43387 -27.0001 -285.505 0 5.93151 26.9989 275.14 0.00118111zm6.73349 -40.9997l4.43505 -26.9989 -301.247 0 5.93033 26.9977 290.882 0.00118111zm6.73467 -40.9997l4.43387 -27.0001 -316.989 0 5.93151 27.0001 306.623 0zm-266.201 208.999c-16.3004,0 -28.9997,12.7004 -28.9997,28.9997 0,16.2993 12.7004,28.9997 28.9997,28.9997 16.2993,0 28.9997,-12.7004 28.9997,-28.9997 0,-16.2993 -12.7004,-28.9997 -28.9997,-28.9997zm174.999 0c-16.3004,0 -28.9997,12.7004 -28.9997,28.9997 0,16.2993 12.7004,28.9997 28.9997,28.9997 16.2993,0 28.9997,-12.7004 28.9997,-28.9997 0,-16.2993 -12.6993,-28.9997 -28.9997,-28.9997zm-90.0003 -417.999l46.4009 0.00118111 0 -8.00081 -46.4009 0 0 7.99963zm-16.9985 125.001l79.9987 0c0,-10.0973 0.86457,-46.4824 -1.09489,-54.0002l-77.7522 0c-2.06103,7.5142 -1.15158,43.8391 -1.15158,54.0002zm71.0223 -68.001c-5.59726,-7.81774 -11.8914,-18.2245 -12.9189,-42.899l-35.3092 0c-1.0252,24.593 -7.53428,35.0103 -13.3902,42.899l61.6183 0z"/>
  <path class="fil1" d="M400.414 64.0998c-6.21498,0.310631 -8.55239,-7.89924 -15.3993,-7.89924 -21.8103,0 -32.1001,63.7809 -12.7926,90.7999l55.2285 0c18.5422,-28.9076 7.64648,-90.9003 -12.437,-90.9003 -8.24412,0 -8.27247,7.68428 -14.5997,7.99963z"/>
  <path class="fil2" d="M315.036 78.9995c-5.59726,-7.81774 -11.8914,-18.2245 -12.9189,-42.899l-35.3092 0c-1.0252,24.593 -7.53428,35.0103 -13.3902,42.899l61.6183 0z"/>
  <polygon class="fil2" points="261.013,21.9993 307.414,22.0005 307.414,13.9996 261.013,13.9996 "/>
  <path class="fil1" d="M322.918 93.0003l-77.7522 0c-2.06103,7.5142 -1.15158,43.8391 -1.15158,54.0002l79.9987 0c0,-10.0973 0.86457,-46.4824 -1.09489,-54.0002z"/>
  <path class="fil2" d="M206.013 147l0.00118111 -110c0,-23.7202 -33.9993,-23.7202 -33.9993,0l0 110 33.9981 0z"/>
  <polygon class="fil2" points="431.013,161 120.214,161 126.585,189.999 448.949,190 453.712,161 "/>
  <polygon class="fil2" points="446.649,203.999 129.661,203.999 135.592,231 442.216,231 "/>
  <polygon class="fil2" points="439.916,245 138.669,245 144.599,271.998 435.481,271.999 "/>
  <polygon class="fil2" points="433.181,285.999 147.676,285.999 153.608,312.998 428.747,312.999 "/>
  <polygon class="fil2" points="426.448,326.999 156.683,326.999 162.615,353.999 165.015,353.999 422.013,353.999 "/>
  <path class="fil2" d="M351.013 439.999c-16.3004,0 -28.9997,12.7004 -28.9997,28.9997 0,16.2993 12.7004,28.9997 28.9997,28.9997 16.2993,0 28.9997,-12.7004 28.9997,-28.9997 0,-16.2993 -12.6993,-28.9997 -28.9997,-28.9997z"/>
  <path class="fil2" d="M205.014 468.998c0,-16.2993 -12.7004,-28.9997 -28.9997,-28.9997 -16.3004,0 -28.9997,12.7004 -28.9997,28.9997 0,16.2993 12.7004,28.9997 28.9997,28.9997 16.2993,0 28.9997,-12.7004 28.9997,-28.9997z"/>
 </g>
</svg>
