<svg viewBox="0 0 48 48" xmlns="http://www.w3.org/2000/svg" xmlns:xlink="http://www.w3.org/1999/xlink"><linearGradient id="a" gradientUnits="userSpaceOnUse" x1="24" x2="24" y1="1.839" y2="45.46"><stop offset="0" stop-color="#c2763e"/><stop offset="1" stop-color="#8a552e"/></linearGradient><linearGradient id="b" gradientUnits="userSpaceOnUse" x1="24" x2="24" y1="-4.589" y2="30.126"><stop offset="0" stop-color="#8a552e"/><stop offset="1" stop-color="#543426"/></linearGradient><linearGradient id="c" gradientUnits="userSpaceOnUse" x1="21" x2="25" y1="27" y2="27"><stop offset="0" stop-color="#34ca82"/><stop offset="1" stop-color="#37a477"/></linearGradient><linearGradient id="d" gradientUnits="userSpaceOnUse" x1="32" x2="36" y1="27" y2="27"><stop offset="0" stop-color="#e85155"/><stop offset="1" stop-color="#c21d2c"/></linearGradient><linearGradient id="e" x1="28" x2="32" xlink:href="#c"/><linearGradient id="f" gradientUnits="userSpaceOnUse" x1="25" x2="28" y1="28" y2="28"><stop offset="0" stop-color="#fed200"/><stop offset="1" stop-color="#f59815"/></linearGradient><linearGradient id="g" gradientUnits="userSpaceOnUse" x1="36" x2="39" y1="28" y2="28"><stop offset="0" stop-color="#4793eb"/><stop offset="1" stop-color="#2367ec"/></linearGradient><linearGradient id="h" x1="18" x2="21" xlink:href="#g"/><linearGradient id="i" gradientUnits="userSpaceOnUse" x1="32" x2="36" y1="24.5" y2="24.5"><stop offset="0" stop-color="#fff"/><stop offset="1" stop-color="#f2eded"/></linearGradient><linearGradient id="j" gradientUnits="userSpaceOnUse" x1="21" x2="25" y1="24.5" y2="24.5"><stop offset="0" stop-color="#fff"/><stop offset="1" stop-color="#edf2f0"/></linearGradient><linearGradient id="k" gradientUnits="userSpaceOnUse" x1="18" x2="21" y1="26.5" y2="26.5"><stop offset="0" stop-color="#fff"/><stop offset="1" stop-color="#edf1f2"/></linearGradient><linearGradient id="l" gradientUnits="userSpaceOnUse" x1="25" x2="28" y1="26.5" y2="26.5"><stop offset="0" stop-color="#fff"/><stop offset="1" stop-color="#f2ebe6"/></linearGradient><linearGradient id="m" x1="9" x2="13" xlink:href="#c" y1="13" y2="13"/><linearGradient id="n" x1="20" x2="24" xlink:href="#f" y1="13" y2="13"/><linearGradient id="o" x1="16" x2="20" xlink:href="#d" y1="13" y2="13"/><linearGradient id="p" x1="13" x2="16" xlink:href="#g" y1="14" y2="14"/><linearGradient id="q" x1="24" x2="27" xlink:href="#c" y1="14" y2="14"/><linearGradient id="r" x1="27" x2="31" xlink:href="#d" y1="13" y2="13"/><linearGradient id="s" x1="9" x2="13" xlink:href="#j" y1="10.5" y2="10.5"/><linearGradient id="t" x1="16" x2="20" xlink:href="#i" y1="10.5" y2="10.5"/><linearGradient id="u" x1="27" x2="31" xlink:href="#i" y1="10.5" y2="10.5"/><linearGradient id="v" x1="13" x2="16" xlink:href="#k" y1="12.5" y2="12.5"/><linearGradient id="w" x1="24" x2="27" xlink:href="#j" y1="12.5" y2="12.5"/><linearGradient id="x" x1="24" x2="24" xlink:href="#b" y1="32.643" y2="45.823"/><linearGradient id="y" x1="27" x2="27" xlink:href="#a" y1="37.089" y2="39.073"/><linearGradient id="z" x1="21" x2="21" xlink:href="#a" y1="37.089" y2="39.073"/><path d="m37 46h-26a5.006 5.006 0 0 1 -5-5v-34a5.006 5.006 0 0 1 5-5h26a5.006 5.006 0 0 1 5 5v34a5.006 5.006 0 0 1 -5 5z" fill="url(#a)"/><rect fill="url(#b)" height="38" rx="2" width="30" x="9" y="5"/><rect fill="url(#c)" height="10" rx="1" width="4" x="21" y="22"/><rect fill="url(#d)" height="10" rx="1" width="4" x="32" y="22"/><rect fill="url(#e)" height="10" rx="1" width="4" x="28" y="22"/><rect fill="url(#f)" height="8" rx="1" width="3" x="25" y="24"/><rect fill="url(#g)" height="8" rx="1" width="3" x="36" y="24"/><rect fill="url(#h)" height="8" rx="1" width="3" x="18" y="24"/><path d="m32 24h4v1h-4z" fill="url(#i)"/><path d="m21 24h4v1h-4z" fill="url(#j)"/><path d="m18 26h3v1h-3z" fill="url(#k)"/><path d="m25 26h3v1h-3z" fill="url(#l)"/><rect fill="url(#m)" height="10" rx="1" width="4" x="9" y="8"/><rect fill="url(#n)" height="10" rx="1" width="4" x="20" y="8"/><rect fill="url(#o)" height="10" rx="1" width="4" x="16" y="8"/><rect fill="url(#p)" height="8" rx="1" width="3" x="13" y="10"/><rect fill="url(#q)" height="8" rx="1" width="3" x="24" y="10"/><rect fill="url(#r)" height="10" rx="1" width="4" x="27" y="8"/><path d="m9 10h4v1h-4z" fill="url(#s)"/><path d="m16 10h4v1h-4z" fill="url(#t)"/><path d="m27 10h4v1h-4z" fill="url(#u)"/><path d="m13 12h3v1h-3z" fill="url(#v)"/><path d="m24 12h3v1h-3z" fill="url(#w)"/><path d="m37 43h-26a2 2 0 0 1 -2-2v-9h30v9a2 2 0 0 1 -2 2z" fill="url(#x)"/><path d="m39 19h-30a1 1 0 0 1 0-2h30a1 1 0 0 1 0 2z" fill="url(#a)"/><path d="m39 31h-30a1 1 0 0 0 0 2h14v11a1 1 0 0 0 2 0v-11h14a1 1 0 0 0 0-2z" fill="url(#a)"/><circle cx="27" cy="38" fill="url(#y)" r="1"/><circle cx="21" cy="38" fill="url(#z)" r="1"/></svg>