<svg xmlns="http://www.w3.org/2000/svg" xml:space="preserve" width="2.66666in" height="2.66666in" version="1.1" style="shape-rendering:geometricPrecision; text-rendering:geometricPrecision; image-rendering:optimizeQuality; fill-rule:evenodd; clip-rule:evenodd" viewBox="0 0 2666.66 2666.66" xmlns:xlink="http://www.w3.org/1999/xlink" xmlns:xodm="http://www.corel.com/coreldraw/odm/2003">
 <defs>
  <style type="text/css">
   
    .fil0 {fill:#FFDAC1}
    .fil1 {fill:#363C3D;fill-rule:nonzero}
    .fil3 {fill:#4682BF;fill-rule:nonzero}
    .fil4 {fill:#D6E3FF;fill-rule:nonzero}
    .fil5 {fill:#E9F1FF;fill-rule:nonzero}
    .fil2 {fill:#FFA725;fill-rule:nonzero}
   
  </style>
 </defs>
 <g id="Layer_x0020_1">
  <metadata id="CorelCorpID_0Corel-Layer"></metadata>
  <circle class="fil0" cx="1333.33" cy="1333.33" r="1333.33" id="id_101" style="fill: rgb(252, 255, 255);"></circle>
  <path class="fil1" d="M1918.44 883.35c-9.21,0 -16.67,-7.47 -16.67,-16.67l0 -24.03c0,-17.79 -14.47,-32.26 -32.26,-32.26l-81.93 0c-9.21,0 -16.67,-7.47 -16.67,-16.67 0,-9.2 7.46,-16.67 16.67,-16.67l81.93 0c36.17,0 65.61,29.43 65.61,65.61l0 24.03c0,9.18 -7.47,16.65 -16.68,16.65z" id="id_102"></path>
  <path class="fil1" d="M748.99 883.35c-9.2,0 -16.67,-7.47 -16.67,-16.67l0 -24.03c0,-36.17 29.43,-65.61 65.61,-65.61l81.94 0c9.21,0 16.67,7.47 16.67,16.67 0,9.2 -7.47,16.67 -16.67,16.67l-81.94 0c-17.79,0 -32.26,14.47 -32.26,32.26l0 24.03c-0.02,9.21 -7.49,16.68 -16.69,16.68z" id="id_103"></path>
  <path class="fil1" d="M1671.54 722.91l-676.39 0c-6.36,0 -12.36,-3.03 -16.13,-8.17 -3.76,-5.14 -4.86,-11.76 -2.94,-17.83l50 -158.68c2.62,-8.34 10.35,-13.98 19.08,-13.98l576.4 0c8.74,0 16.46,5.67 19.07,13.98l50 158.68c1.93,6.09 0.83,12.71 -2.94,17.83 -3.78,5.14 -9.77,8.17 -16.14,8.17z" id="id_104"></path>
  <path class="fil1" d="M1680.46 1778.48l-695.96 0c-11.04,0 -20,-8.97 -20,-20 0,-11.03 8.96,-20 20,-20l695.95 0c11.04,0 20,8.97 20,20 0,11.03 -8.94,20 -19.99,20z" id="id_105"></path>
  <path class="fil1" d="M1749.43 1863.01l-833.48 0c-11.04,0 -20,-8.97 -20,-20 0,-11.03 8.96,-20 20,-20l833.5 0c11.04,0 20,8.97 20,20 0,11.03 -8.98,20 -20.02,20z" id="id_106"></path>
  <path class="fil1" d="M1818.38 1947.55l-971 0c-11.04,0 -20,-8.97 -20,-20 0,-11.03 8.96,-20 20,-20l971.02 0c11.04,0 20,8.97 20,20 0,11.03 -8.97,20 -20.02,20z" id="id_107"></path>
  <path class="fil1" d="M1887.34 2032.08l-1108.52 0c-11.04,0 -20,-8.97 -20,-20 0,-11.03 8.96,-20 20,-20l1108.52 0c11.04,0 20,8.97 20,20 0,11.03 -8.96,20 -20,20z" id="id_108"></path>
  <path class="fil1" d="M2166.66 2142.41l-189.09 0 -0.48 0 -1287.5 0 -0.48 0 -189.11 0c-8.18,0 -15.53,-4.97 -18.57,-12.57 -3.04,-7.6 -1.15,-16.26 4.77,-21.9l496.04 -472.82c8,-7.61 20.67,-7.31 28.28,0.68 1.83,1.92 3.2,4.1 4.11,6.43l38.91 0 4.52 -5.57c6.96,-8.54 19.56,-9.89 28.13,-2.92 8.58,6.97 9.87,19.56 2.92,28.14l-357.76 440.52 1203.85 0 -359.08 -440.19c-6.97,-8.56 -5.7,-21.15 2.86,-28.13 8.57,-6.97 21.15,-5.68 28.13,2.86l7.61 9.33 32.82 1.01c0.48,-4.14 2.26,-8.17 5.34,-11.43 7.61,-8.02 20.26,-8.37 28.28,-0.78l499.24 472.81c5.94,5.63 7.85,14.32 4.83,21.93 -3.03,7.61 -10.39,12.6 -18.59,12.6z" id="id_109"></path>
  <path class="fil2" d="M1737.95 1669.56l-809.22 0c-37.96,0 -68.86,-30.9 -68.86,-68.86l0 -848.93c0,-37.96 30.89,-68.86 68.86,-68.86l809.22 0c37.96,0 68.86,30.89 68.86,68.86l0 848.94c0,37.96 -30.89,68.85 -68.86,68.85z" id="id_110"></path>
  <polygon class="fil3" points="859.87,1264.39 859.87,839.61 1806.81,839.61 1806.81,1264.39 " id="id_111"></polygon>
  <g id="_3060908420528">
   <path class="fil4" d="M1806.81 1370.6l0 158.06 -134.46 0c-43.59,0 -79.03,-35.46 -79.03,-79.03 0,-43.57 35.46,-79.03 79.03,-79.03l134.46 0z" id="id_112"></path>
   <path class="fil4" d="M859.87 1528.66l0 -158.06 134.46 0c43.59,0 79.03,35.46 79.03,79.03 0,43.57 -35.45,79.03 -79.03,79.03l-134.46 0z" id="id_113"></path>
  </g>
  <path class="fil2" d="M1333.05 1347.72c-11.04,0 -20,-8.96 -20,-20l0 -584.77c0,-11.04 8.96,-20 20,-20 11.04,0 20,8.96 20,20l0 584.76c0,11.05 -8.96,20.01 -20,20.01z" id="id_114"></path>
  <path class="fil5" d="M1576.4 1159.78c-5.11,0 -10.24,-1.96 -14.15,-5.86l-93.31 -93.3c-7.82,-7.8 -7.82,-20.47 0,-28.28 7.82,-7.82 20.49,-7.82 28.3,0l93.31 93.29c7.82,7.81 7.82,20.47 0,28.28 -3.89,3.91 -9.02,5.86 -14.14,5.86z" id="id_115"></path>
  <path class="fil5" d="M1658.66 1134c-5.11,0 -10.24,-1.96 -14.15,-5.86l-149.76 -149.78c-7.82,-7.81 -7.82,-20.48 0,-28.28 7.82,-7.82 20.49,-7.82 28.29,0l149.78 149.78c7.82,7.81 7.82,20.47 0,28.28 -3.91,3.91 -9.05,5.86 -14.16,5.86z" id="id_116"></path>
  <path class="fil5" d="M1090.27 1159.78c-5.12,0 -10.24,-1.96 -14.14,-5.86 -7.82,-7.81 -7.82,-20.47 0,-28.28l93.29 -93.29c7.82,-7.82 20.47,-7.82 28.28,0 7.82,7.8 7.82,20.47 0,28.28l-93.29 93.3c-3.91,3.91 -9.01,5.86 -14.14,5.86z" id="id_117"></path>
  <path class="fil5" d="M1008.02 1134c-5.12,0 -10.24,-1.96 -14.14,-5.86 -7.82,-7.81 -7.82,-20.47 0,-28.28l149.78 -149.78c7.82,-7.82 20.47,-7.82 28.28,0 7.82,7.8 7.82,20.47 0,28.28l-149.78 149.78c-3.9,3.91 -9.01,5.86 -14.14,5.86z" id="id_118"></path>
  <path class="fil2" d="M1955.8 1064.59l-79.53 0c-22.68,0 -41.14,-18.46 -41.14,-41.14l0 -132.3c0,-22.69 18.46,-41.14 41.14,-41.14l79.53 0c22.69,0 41.14,18.46 41.14,41.14l0 132.3c0,22.68 -18.46,41.14 -41.14,41.14z" id="id_119"></path>
  <path class="fil2" d="M791.17 1064.59l-79.54 0c-22.68,0 -41.14,-18.46 -41.14,-41.14l0 -132.3c0,-22.69 18.46,-41.14 41.14,-41.14l79.54 0c22.68,0 41.14,18.46 41.14,41.14l0 132.3c0,22.68 -18.46,41.14 -41.14,41.14z" id="id_120"></path>
  <path class="fil1" d="M1485.7 1404.5l-312.5 0c-11.04,0 -20,-8.97 -20,-20 0,-11.03 8.96,-20 20,-20l312.5 0c11.04,0 20,8.97 20,20 0,11.03 -8.96,20 -20,20z" id="id_121"></path>
  <path class="fil1" d="M1485.7 1473.95l-312.5 0c-11.04,0 -20,-8.97 -20,-20 0,-11.03 8.96,-20 20,-20l312.5 0c11.04,0 20,8.97 20,20 0,11.03 -8.96,20 -20,20z" id="id_122"></path>
  <path class="fil1" d="M1485.7 1543.41l-312.5 0c-11.04,0 -20,-8.97 -20,-20 0,-11.03 8.96,-20 20,-20l312.5 0c11.04,0 20,8.97 20,20 0,11.03 -8.96,20 -20,20z" id="id_123"></path>
 </g>
</svg>