<svg clip-rule="evenodd" fill-rule="evenodd" height="1.70666in" image-rendering="optimizeQuality" shape-rendering="geometricPrecision" text-rendering="geometricPrecision" viewBox="0 0 1.70666 1.70666" width="1.70666in" xmlns="http://www.w3.org/2000/svg"><path d="m1.68496 1.5495h-1.66325c-.0119685 0-.0216693-.00969685-.0216693-.0216654v-.154713c0-.0119646.00970079-.0216654.0216693-.0216654h1.66325c.0119685 0 .0216654.00970079.0216654.0216654v.154713c0 .0119685-.00969685.0216654-.0216654.0216654z"/><path d="m.167661 1.30812v-.0419764c0-.0119685.00969685-.0216654.0216654-.0216654h.287953c.0119685 0 .0216654.00969685.0216654.0216654v.0419764h-.331283z"/><path d="m.687697 1.30812v-.0419764c0-.0119685.00969685-.0216654.0216654-.0216654h.287949c.0119646 0 .0216654.00969685.0216654.0216654v.0419764h-.33128z"/><path d="m1.20773 1.30812v-.0419764c0-.0119685.00970079-.0216654.0216654-.0216654h.287957c.0119685 0 .0216654.00969685.0216654.0216654v.0419764h-.331287z"/><path d="m.229976 1.20115v-.351359h.20665v.351359z"/><path d="m.750008 1.20115v-.351359h.206649v.351359z"/><path d="m1.27005 1.20115v-.351359h.20665v.351359z"/><path d="m.477276.806461h-.287949c-.0119685 0-.0216654-.00969685-.0216654-.0216654v-.0419803h.331283v.0419803c-.00000394.0119685-.00970079.0216654-.0216693.0216654z"/><path d="m.997311.806461h-.287949c-.0119685 0-.0216654-.00969685-.0216654-.0216654v-.0419803h.33128v.0419803c0 .0119685-.00970079.0216654-.0216654.0216654z"/><path d="m1.51735.806461h-.287957c-.0119646 0-.0216654-.00969685-.0216654-.0216654v-.0419803h.331287v.0419803c0 .0119685-.00970079.0216654-.0216654.0216654z"/><path d="m1.67207.699484h-1.63748c-.0119685 0-.0216654-.00970079-.0216654-.0216654v-.30139c0-.0100039.00684646-.0187047.0165669-.0210591l.816358-.197598c.00333858-.00081102.00682677-.00081496.0101654-.00000787l.82113.197602c.00973622.00234252.0165945.0110472.0165945.021063v.30139c0 .0119646-.00969685.0216654-.0216654.0216654zm-1.24934-.146122c-.0119646 0-.0216654-.00969685-.0216654-.0216654v-.0604016l-.0185039.0185c-.00406299.00406299-.00957874.00634646-.0153189.00634646-.00574803 0-.0112559-.00227953-.0153189-.00634646l-.0185039-.0185v.0604016c0 .0119685-.00970079.0216654-.0216654.0216654-.0119685 0-.0216654-.00969685-.0216654-.0216654v-.112709c0-.00876378.00527559-.0166654.013374-.0200157.00810236-.00335433.0174173-.0015.0236102.00469685l.0401693.0401654.0401693-.0401654c.00619685-.00619685.0155157-.00805512.0236102-.00469685.00809449.00335433.013374.011252.013374.0200157v.112709c0 .0119685-.00970079.0216654-.0216654.0216654zm.972181.00047244c-.0119685 0-.0216654-.00970079-.0216654-.0216654v-.0604094l-.0185039.0185039c-.00406299.00406299-.0095748.00634646-.0153228.00634646-.00574803 0-.0112598-.00228346-.0153228-.00634646l-.0185-.0185039v.0604094c0 .0119646-.00970079.0216654-.0216654.0216654-.0119685 0-.0216693-.00970079-.0216693-.0216654l.00000394-.11272c0-.00875984.00527953-.0166654.013374-.0200118.00808661-.00334646.0174134-.00150394.0236142.00469291l.0401654.0401732.0401693-.0401732c.00619685-.00619685.0155118-.00804331.0236142-.00469291.00809449.00335039.013374.011252.013374.0200118v.11272c0 .0119646-.00970079.0216654-.0216654.0216654zm-.266524-.00070866c-.0394606 0-.0715669-.0321024-.0715669-.0715591v-.0616417c0-.0119685.00970079-.0216654.0216654-.0216654.0119685 0 .0216654.00969685.0216654.0216654v.0616417c0 .0155669.0126654.0282283.0282323.0282283.0155709 0 .0282362-.0126614.0282362-.0282283v-.0616417c0-.0119685.00969685-.0216654.0216654-.0216654.0119685 0 .0216654.00969685.0216654.0216654v.0616417c0 .0394567-.0321024.0715591-.071563.0715591zm-.155547.0004685h-.0703858c-.0119646 0-.0216654-.00970079-.0216654-.0216654v-.112709c0-.0119685.00970079-.0216654.0216654-.0216654h.0703858c.0119685 0 .0216654.00969685.0216654.0216654 0 .0119646-.00969685.0216654-.0216654.0216654h-.0487205v.0130236h.0487205c.0119685 0 .0216654.00970079.0216654.0216654 0 .0119685-.00969685.0216654-.0216654.0216654h-.0487205v.0130197l.0487205.00000394c.0119685 0 .0216654.00969685.0216654.0216654 0 .0119646-.00969685.0216654-.0216654.0216654zm-.204213.0004685h-.034811c-.0119646 0-.0216654-.00969685-.0216654-.0216654 0-.0119646.00970079-.0216654.0216654-.0216654h.034811c.00352756 0 .00650787-.00298425.00650787-.00650787 0-.00290551 0-.00651575-.0131417-.00651575-.0274843 0-.0498425-.0223583-.0498425-.0498386 0-.0274843.0223583-.0498425.0498425-.0498425h.0348071c.0119685 0 .0216654.00970079.0216654.0216654 0 .0119685-.00969685.0216654-.0216654.0216654h-.0348071c-.0035315 0-.00651181.00298425-.00651181.00651181 0 .00352362.00298425.00650787.00651181.00650787.0343071 0 .0564724.019563.0564724.0498425.00000394.0274803-.0223543.0498425-.0498386.0498425zm-.19035-.00070079c-.0394646 0-.0715669-.0320984-.0715669-.0715591v-.0616457c0-.0119685.00969685-.0216654.0216654-.0216654.0119646 0 .0216654.00969685.0216654.0216654v.0616457c0 .0155669.0126654.0282323.0282323.0282323.015563 0 .0282283-.0126654.0282283-.0282323v-.0616457c0-.0119685.00970079-.0216654.0216693-.0216654.0119646 0 .0216654.00969685.0216654.0216654v.0616457c0 .0394606-.0321024.0715591-.0715591.0715591z"/></svg>