<svg version="1.0" id="Layer_1" xmlns="http://www.w3.org/2000/svg" xmlns:xlink="http://www.w3.org/1999/xlink" x="0px" y="0px" width="100px" height="100px" viewBox="0 0 100 100" enable-background="new 0 0 100 100" xml:space="preserve">
<rect x="35" y="56.667" width="10" height="6.666" id="id_105" style="fill: rgb(252, 66, 10);"></rect>
<path d="M45,48.333c0,1.833-1.5,3.333-3.333,3.333h-3.333C36.5,51.667,35,50.166,35,48.333v-10C35,36.5,36.5,35,38.333,35h3.333
	C43.5,35,45,36.5,45,38.333V48.333z" id="id_106" style="fill: rgb(252, 65, 8);"></path>
<path d="M56.667,30c0-3.667-3.002-6.667-6.667-6.667H30c-3.667,0-6.667,3-6.667,6.667v53.333h-6.667V90h46.667v-6.667h-6.666v-6.666
	H70V43.333C70,35.97,64.03,30,56.667,30z M30,83.333V30h20v53.333H30z M56.667,70V36.667c3.682,0,6.666,2.985,6.666,6.667V70H56.667
	z" id="id_107" style="fill: rgb(222, 202, 71);"></path>
<path d="M90,10H16.667C12.985,10,10,12.985,10,16.667h66.667V90h6.666V16.667H90V10z" id="id_108" style="fill: rgb(20, 17, 105);"></path>
</svg>