<svg viewBox="0 0 64 64" xmlns="http://www.w3.org/2000/svg" xmlns:xlink="http://www.w3.org/1999/xlink"><linearGradient id="a" gradientUnits="userSpaceOnUse" x1="7.655" x2="46.072" y1="47.405" y2="8.987"><stop offset="0" stop-color="#41dfd0"/><stop offset="1" stop-color="#ee83ef"/></linearGradient><path d="m24.25 56h-8v-15.965h8zm-6.95-30.025a7.107 7.107 0 0 0 3.538 1.99 4.8 4.8 0 0 0 .948.1 3.847 3.847 0 0 0 1.46-.28v6.245h-6v-8.117c.024.02.038.042.054.062zm-.05-4.185v-.665a1.348 1.348 0 0 1 .35-.741 1.5 1.5 0 0 1 1.088-.384 2.955 2.955 0 0 1 .573.059 5.548 5.548 0 0 1 3.958 3.96 1.869 1.869 0 0 1 -.325 1.66 1.867 1.867 0 0 1 -1.661.321 5.182 5.182 0 0 1 -2.515-1.443 4.831 4.831 0 0 1 -1.468-2.767zm6 14.245v2h-6v-2zm-9.413-25.819a11.967 11.967 0 0 1 15.477-.638l.321.25a1 1 0 0 0 1.215.012l.415-.311a11.98 11.98 0 0 1 15.4.563l5.293 4.785-10.558-.641a15.428 15.428 0 0 0 -6.4.964 13.528 13.528 0 0 1 -9.478.007l-.022-.007a15.422 15.422 0 0 0 -6.4-.958l-10.34.636zm5.384 6.02a13.509 13.509 0 0 1 5.56.828l.02.008a15.515 15.515 0 0 0 5.446.988 15.577 15.577 0 0 0 5.462-.991 13.454 13.454 0 0 1 5.564-.837l9.362.568-15.446 6.928a11.983 11.983 0 0 1 -9.872-.021l-.135-.061v-.02a7.531 7.531 0 0 0 -5.53-5.526 3.754 3.754 0 0 0 -3.466.872 3.108 3.108 0 0 0 -.338.443l-5.772-2.615zm34.029 15.57a10.493 10.493 0 0 0 -3.807-3.806 10.486 10.486 0 0 0 3.807-3.806 10.493 10.493 0 0 0 3.807 3.806 10.486 10.486 0 0 0 -3.807 3.806zm-4.765 6.194a15.671 15.671 0 0 0 -3.235 3.235 15.671 15.671 0 0 0 -3.235-3.235 15.671 15.671 0 0 0 3.235-3.235 15.671 15.671 0 0 0 3.235 3.235z" fill="url(#a)"/></svg>